<svg width="24" height="24" viewBox="0 0 24 24" fill="none" xmlns="http://www.w3.org/2000/svg">
<path fill-rule="evenodd" clip-rule="evenodd" d="M6.3367 8.76661C6.56173 8.54165 6.8669 8.41527 7.1851 8.41527C7.50329 8.41527 7.80846 8.54165 8.0335 8.76661L11.9851 12.7182L15.9367 8.76661C16.0474 8.652 16.1798 8.56058 16.3262 8.49769C16.4726 8.4348 16.6301 8.4017 16.7894 8.40031C16.9487 8.39893 17.1068 8.42929 17.2542 8.48963C17.4017 8.54997 17.5357 8.63907 17.6484 8.75174C17.761 8.86441 17.8501 8.99839 17.9105 9.14587C17.9708 9.29335 18.0012 9.45136 17.9998 9.6107C17.9984 9.77003 17.9653 9.92749 17.9024 10.0739C17.8395 10.2203 17.7481 10.3527 17.6335 10.4634L12.8335 15.2634C12.6085 15.4884 12.3033 15.6148 11.9851 15.6148C11.6669 15.6148 11.3617 15.4884 11.1367 15.2634L6.3367 10.4634C6.11173 10.2384 5.98535 9.93321 5.98535 9.61501C5.98535 9.29682 6.11173 8.99165 6.3367 8.76661Z" fill="#29384E"/>
</svg>
