<svg width="24" height="25" viewBox="0 0 24 25" fill="none" xmlns="http://www.w3.org/2000/svg">
<path d="M11.7333 6.53417C11.8652 5.86185 11.8575 4.97269 11.821 4.28439C11.7909 3.7165 12.4632 3.21838 13.4106 3.21838C14.358 3.21838 14.6778 3.41507 14.82 3.73908C15.1172 4.4161 15.5733 5.61994 15.5227 6.53417C15.4763 7.37372 14.9791 8.39226 14.5857 9.07707C14.3946 9.40982 14.6304 9.84996 15.0141 9.84996H20.2979C21.4997 9.84996 22.3979 10.9545 22.1528 12.1311L20.5738 19.7101C20.3908 20.5887 19.6164 21.2184 18.7189 21.2184H10.3122C9.26578 21.2184 8.41748 20.3701 8.41748 19.3236V11.9101C8.41748 11.803 8.45198 11.7013 8.51797 11.617C9.04673 10.9412 11.4915 7.7663 11.7333 6.53417Z" fill="#DBEAFE" stroke="#007AFF" stroke-width="1.89474" stroke-linecap="round" stroke-linejoin="round"/>
<path d="M1.80664 18.9303V13.4531C1.80664 12.4067 2.65494 11.5584 3.70138 11.5584H6.39858C7.44501 11.5584 8.29331 12.4067 8.29331 13.4531V18.9303C8.29331 19.9768 7.44501 20.8251 6.39858 20.8251H3.70138C2.65494 20.8251 1.80664 19.9768 1.80664 18.9303Z" fill="#DBEAFE" stroke="#FF9800" stroke-width="1.89474"/>
</svg>
