<svg width="26" height="26" viewBox="0 0 26 26" fill="none" xmlns="http://www.w3.org/2000/svg">
<rect width="26" height="26" rx="13" fill="#F5FAFF"/>
<path d="M9.35623 22.5C12.8061 22.5 15.6028 19.7033 15.6028 16.2534C15.6028 16.1366 15.5996 16.0205 15.5933 15.9052C15.432 12.9705 13.245 10.5755 10.4069 10.0948C10.0653 10.037 9.71428 10.0068 9.35623 10.0068C5.90635 10.0068 3.10966 12.8035 3.10966 16.2534C3.10966 17.2352 3.33616 18.1641 3.73975 18.9907C3.86047 19.2379 3.88068 19.5256 3.77109 19.778L3.22768 21.0294C2.95313 21.6617 3.49 22.3462 4.16947 22.2302L6.24956 21.8751C6.43324 21.8437 6.62132 21.8742 6.79119 21.9508C7.57375 22.3036 8.44206 22.5 9.35623 22.5Z" fill="#FF9800" fill-opacity="0.5"/>
<path d="M15.5933 15.9052C15.5996 16.0205 15.6028 16.1366 15.6028 16.2534C15.6028 19.7033 12.8061 22.5 9.35623 22.5C8.44206 22.5 7.57375 22.3036 6.79119 21.9507C6.62132 21.8742 6.43324 21.8437 6.24956 21.8751L4.16947 22.2302C3.49 22.3462 2.95313 21.6617 3.22768 21.0294L3.77109 19.778C3.88068 19.5256 3.86047 19.2379 3.73975 18.9907C3.33616 18.1641 3.10966 17.2352 3.10966 16.2534C3.10966 12.8035 5.90635 10.0068 9.35623 10.0068C9.71428 10.0068 10.0653 10.037 10.4069 10.0948M15.5933 15.9052C15.9348 15.963 16.2859 15.9932 16.6439 15.9932C17.5581 15.9932 18.4264 15.7968 19.2089 15.4439C19.3788 15.3673 19.5669 15.3369 19.7506 15.3682L21.8307 15.7234C22.5101 15.8394 23.047 15.1549 22.7725 14.5226L22.2291 13.2712C22.1195 13.0188 22.1397 12.7311 22.2604 12.4838C22.664 11.6572 22.8905 10.7284 22.8905 9.74658C22.8905 6.29669 20.0938 3.5 16.6439 3.5C13.194 3.5 10.3973 6.29669 10.3973 9.74658C10.3973 9.86344 10.4005 9.97955 10.4069 10.0948M15.5933 15.9052C15.432 12.9705 13.245 10.5755 10.4069 10.0948" stroke="#007AFF" stroke-width="1.30137" stroke-linejoin="round"/>
</svg>
