<svg width="24" height="24" viewBox="0 0 24 24" fill="none" xmlns="http://www.w3.org/2000/svg">
<path d="M11.1157 3.31994C11.4824 2.57605 12.5431 2.57605 12.9097 3.31994L15.1881 7.94276C15.3338 8.23833 15.6157 8.44316 15.9418 8.49037L21.0001 9.22264C21.8194 9.34125 22.1481 10.3471 21.5568 10.9265L17.8802 14.5297C17.646 14.7592 17.5392 15.0889 17.5944 15.4121L18.4618 20.4969C18.6013 21.3149 17.7412 21.9372 17.0078 21.5487L12.4809 19.1502C12.1881 18.9951 11.8374 18.9951 11.5446 19.1502L7.0176 21.5487C6.28427 21.9372 5.42412 21.3149 5.56367 20.4969L6.43081 15.4135C6.48608 15.0896 6.37861 14.7591 6.14334 14.5296L2.45153 10.9281C1.85803 10.3492 2.18639 9.34098 3.00701 9.22258L8.0833 8.49016C8.4096 8.44308 8.69173 8.2382 8.83748 7.94249L11.1157 3.31994Z" fill="#FF9800"/>
</svg>
