<svg width="24" height="24" viewBox="0 0 24 24" fill="none" xmlns="http://www.w3.org/2000/svg">
<path d="M10.4881 2.256C10.4881 1.83847 10.1496 1.5 9.73208 1.5C9.31456 1.5 8.97607 1.83847 8.97607 2.256V4.52402C8.97607 4.94155 9.31456 5.28002 9.73208 5.28002C10.1496 5.28002 10.4881 4.94155 10.4881 4.52402V2.256Z" fill="#FF9800"/>
<path d="M5.82504 3.34869C5.59345 3.00129 5.12407 2.90741 4.77667 3.13901C4.42927 3.37062 4.33539 3.84 4.56699 4.18741L6.07901 6.45541C6.3106 6.80282 6.77998 6.89671 7.12739 6.66512C7.47479 6.43348 7.56869 5.9641 7.33705 5.61669L5.82504 3.34869Z" fill="#FF9800"/>
<path fill-rule="evenodd" clip-rule="evenodd" d="M16.9761 5.28003C16.3508 5.28003 15.7512 5.5284 15.3091 5.97051L10.4379 10.8417L10.6165 10.175C10.6968 9.87603 10.7174 9.56421 10.6772 9.25727C10.637 8.95018 10.5366 8.65398 10.3818 8.38565C10.2271 8.11731 10.0209 7.88215 9.77521 7.6935C9.52951 7.5049 9.24903 7.36655 8.94986 7.28637C8.65063 7.20618 8.33855 7.18577 8.03146 7.22629C7.72438 7.26676 7.42827 7.36741 7.16009 7.52239C6.89186 7.67737 6.65685 7.88371 6.46845 8.12956C6.28691 8.36644 6.15204 8.63558 6.07099 8.92261C5.05523 11.7715 4.44246 13.9304 4.43995 15.7204C4.43731 17.5963 5.10215 19.0283 6.47611 20.4023C7.14114 21.0674 7.93071 21.5949 8.79962 21.9548C9.66857 22.3148 10.5999 22.5 11.5404 22.5C12.4809 22.5 13.4123 22.3148 14.2812 21.9548C15.1501 21.5949 15.9396 21.0674 16.6047 20.4023L18.8695 18.1375C19.3117 17.6953 19.56 17.0957 19.56 16.4705C19.56 15.8452 19.3117 15.2456 18.8695 14.8035C18.5895 14.5234 18.2461 14.321 17.8732 14.2104C17.9399 13.9905 17.9746 13.7601 17.9746 13.5261C17.9746 12.9009 17.7263 12.3012 17.2842 11.8591C17.0778 11.6527 16.837 11.4886 16.5754 11.3722L18.643 9.30454C19.0852 8.86243 19.3335 8.26277 19.3335 7.6375C19.3335 7.01229 19.0852 6.41263 18.643 5.97051C18.2009 5.5284 17.6013 5.28003 16.9761 5.28003ZM17.2026 15.625C16.9783 15.625 16.7632 15.7141 16.6047 15.8726C16.3095 16.1679 15.8308 16.1679 15.5355 15.8726C15.2403 15.5774 15.2403 15.0987 15.5355 14.8035L16.215 14.124C16.3735 13.9655 16.4626 13.7504 16.4626 13.5261C16.4626 13.3019 16.3735 13.0868 16.215 12.9283C16.0564 12.7697 15.8414 12.6807 15.6171 12.6807C15.3932 12.6807 15.1784 12.7695 15.0199 12.9277L14.7928 13.1548C14.4976 13.45 14.0189 13.45 13.7236 13.1548C13.4284 12.8595 13.4284 12.3809 13.7236 12.0856L17.5739 8.2354C17.7325 8.07684 17.8215 7.86179 17.8215 7.6375C17.8215 7.41327 17.7325 7.19821 17.5739 7.03966C17.4153 6.8811 17.2003 6.79204 16.9761 6.79204C16.7518 6.79204 16.5368 6.8811 16.3782 7.03966L9.51192 13.9059C9.27 14.1479 8.89568 14.1972 8.59937 14.0261C8.30302 13.855 8.15857 13.5062 8.24713 13.1757L9.1562 9.78305C9.18503 9.67579 9.19244 9.56385 9.17802 9.45373C9.16356 9.34355 9.12757 9.23731 9.07208 9.1411C9.01659 9.04488 8.94265 8.96051 8.8545 8.89288C8.7664 8.82524 8.6658 8.77559 8.5585 8.74687C8.4512 8.71809 8.33931 8.71078 8.22913 8.72529C8.11901 8.73981 8.01282 8.7759 7.91665 8.83149C7.82044 8.88708 7.73617 8.96107 7.66858 9.04927C7.601 9.13742 7.5515 9.23807 7.52282 9.34542C7.51748 9.36533 7.51138 9.38503 7.50443 9.40444C6.47919 12.2772 5.95406 14.2184 5.95195 15.7225C5.94993 17.1462 6.41755 18.2054 7.54525 19.3331C8.06992 19.8578 8.69277 20.274 9.37826 20.5579C10.0638 20.8419 10.7984 20.988 11.5404 20.988C12.2824 20.988 13.0171 20.8419 13.7026 20.5579C14.3881 20.274 15.0109 19.8578 15.5355 19.3331L17.8004 17.0683C17.959 16.9098 18.048 16.6947 18.048 16.4705C18.048 16.2462 17.959 16.0312 17.8004 15.8726C17.6418 15.7141 17.4268 15.625 17.2026 15.625Z" fill="#007AFF"/>
<path d="M14.6872 3.13901C14.3398 2.90741 13.8704 3.00129 13.6388 3.34869L12.1268 5.61669C11.8952 5.9641 11.9891 6.43348 12.3365 6.66512C12.6839 6.89671 13.1533 6.80282 13.3849 6.45541L14.8969 4.18741C15.1285 3.84 15.0346 3.37062 14.6872 3.13901Z" fill="#FF9800"/>
</svg>
