<svg width="26" height="26" viewBox="0 0 26 26" fill="none" xmlns="http://www.w3.org/2000/svg">
<rect width="26" height="26" rx="13" fill="#DBEAFE"/>
<path d="M7.94625 16.046L6.63672 17.2548C6.41176 17.4625 6.10667 17.5791 5.78855 17.5791C5.47043 17.5791 5.16532 17.4625 4.94037 17.2548C4.8291 17.1523 4.74082 17.0305 4.68059 16.8965C4.62036 16.7624 4.58936 16.6187 4.58936 16.4735C4.58936 16.3284 4.62036 16.1847 4.68059 16.0507C4.74082 15.9166 4.8291 15.7948 4.94037 15.6922L6.257 14.4835C6.48196 14.2758 6.78705 14.1592 7.10517 14.1592C7.42329 14.1592 7.72838 14.2758 7.95334 14.4835C8.06414 14.5864 8.15187 14.7086 8.21149 14.8428C8.27111 14.9772 8.30149 15.121 8.30081 15.2661C8.30014 15.4112 8.26848 15.5549 8.20765 15.6887C8.14683 15.8225 8.05796 15.944 7.94625 16.046Z" stroke="#007AFF" stroke-linejoin="round"/>
<path d="M13.0462 20.7108L11.7402 21.9163C11.5153 22.124 11.2102 22.2406 10.8921 22.2406C10.5739 22.2406 10.2688 22.124 10.0439 21.9163C9.93263 21.8138 9.84434 21.692 9.78411 21.558C9.72389 21.4239 9.69287 21.2802 9.69287 21.135C9.69287 20.9899 9.72389 20.8462 9.78411 20.7121C9.84434 20.5781 9.93263 20.4563 10.0439 20.3537L11.3534 19.1482C11.4645 19.0455 11.5964 18.964 11.7417 18.9084C11.8869 18.8528 12.0426 18.8242 12.1998 18.8242C12.3571 18.8242 12.5127 18.8528 12.658 18.9084C12.8032 18.964 12.9351 19.0455 13.0462 19.1482C13.1575 19.2508 13.2458 19.3726 13.306 19.5066C13.3662 19.6407 13.3972 19.7844 13.3972 19.9295C13.3972 20.0747 13.3662 20.2184 13.306 20.3524C13.2458 20.4865 13.1575 20.6083 13.0462 20.7108Z" stroke="#007AFF" stroke-linejoin="round"/>
<path d="M21.9396 10.3131L16.8825 5.65486C16.7704 5.55144 16.6814 5.42861 16.6207 5.29343C16.56 5.15825 16.5288 5.01336 16.5288 4.86702C16.5288 4.72069 16.56 4.5758 16.6207 4.44061C16.6814 4.30543 16.7704 4.18262 16.8825 4.07918C16.9946 3.97567 17.1276 3.89356 17.2741 3.83754C17.4205 3.78152 17.5775 3.75269 17.736 3.75269C17.8945 3.75269 18.0515 3.78152 18.1979 3.83754C18.3444 3.89356 18.4774 3.97567 18.5895 4.07918L23.6466 8.73743C23.7586 8.84059 23.8475 8.96314 23.9081 9.09804C23.9688 9.23297 24 9.3776 24 9.52364C24 9.66971 23.9688 9.81434 23.9081 9.94924C23.8475 10.0842 23.7586 10.2067 23.6466 10.3098C23.5348 10.4136 23.4019 10.4959 23.2556 10.5523C23.1092 10.6085 22.9524 10.6377 22.7938 10.638C22.6353 10.6383 22.4783 10.6097 22.3317 10.554C22.1851 10.4983 22.0519 10.4164 21.9396 10.3131Z" fill="#FF9800" stroke="#FF9800" stroke-linecap="round" stroke-linejoin="round"/>
<path d="M4.06039 10.3131L9.1175 5.65486C9.22961 5.55144 9.31858 5.42861 9.37927 5.29343C9.43995 5.15825 9.47118 5.01336 9.47118 4.86702C9.47118 4.72069 9.43995 4.5758 9.37927 4.44061C9.31858 4.30543 9.22961 4.18262 9.1175 4.07918C9.00543 3.97567 8.87239 3.89356 8.72592 3.83754C8.5795 3.78152 8.42253 3.75269 8.26401 3.75269C8.10548 3.75269 7.94852 3.78152 7.80205 3.83754C7.65559 3.89356 7.52255 3.97567 7.41051 4.07918L2.3534 8.73743C2.24138 8.84059 2.1525 8.96314 2.09186 9.09804C2.03122 9.23297 2 9.3776 2 9.52364C2 9.66971 2.03122 9.81434 2.09186 9.94924C2.1525 10.0842 2.24138 10.2067 2.3534 10.3098C2.46522 10.4136 2.59809 10.4959 2.74441 10.5523C2.89073 10.6085 3.04764 10.6377 3.20616 10.638C3.36469 10.6383 3.52172 10.6097 3.6683 10.554C3.81487 10.4983 3.9481 10.4164 4.06039 10.3131Z" fill="#FF9800" stroke="#FF9800" stroke-linecap="round" stroke-linejoin="round"/>
<path d="M10.0012 17.2775L7.95703 19.1611C7.73207 19.3688 7.42698 19.4854 7.10886 19.4854C6.7907 19.4854 6.48561 19.3688 6.26068 19.1611C6.14939 19.0586 6.06113 18.9368 6.00087 18.8027C5.94065 18.6687 5.90967 18.525 5.90967 18.3798C5.90967 18.2347 5.94065 18.091 6.00087 17.9569C6.06113 17.8228 6.14939 17.7011 6.26068 17.5985L8.30482 15.7149C8.52974 15.5073 8.83484 15.3906 9.15299 15.3906C9.47111 15.3906 9.7762 15.5073 10.0012 15.7149C10.1124 15.8175 10.2007 15.9392 10.2609 16.0733C10.3212 16.2074 10.3522 16.3511 10.3522 16.4962C10.3522 16.6413 10.3212 16.7851 10.2609 16.9191C10.2007 17.0532 10.1124 17.1749 10.0012 17.2775Z" stroke="#007AFF" stroke-linejoin="round"/>
<path d="M11.7048 18.8336L9.66064 20.7173C9.43568 20.9249 9.13059 21.0416 8.81247 21.0416C8.49435 21.0416 8.18926 20.9249 7.9643 20.7173C7.85304 20.6147 7.76475 20.493 7.70452 20.3589C7.6443 20.2248 7.61328 20.0811 7.61328 19.936C7.61328 19.7908 7.6443 19.6471 7.70452 19.5131C7.76475 19.379 7.85304 19.2572 7.9643 19.1547L10.0084 17.2711C10.2334 17.0634 10.5385 16.9468 10.8566 16.9468C11.1747 16.9468 11.4798 17.0634 11.7048 17.2711C11.8161 17.3736 11.9043 17.4954 11.9646 17.6295C12.0248 17.7635 12.0558 17.9072 12.0558 18.0524C12.0558 18.1975 12.0248 18.3412 11.9646 18.4753C11.9043 18.6093 11.8161 18.7311 11.7048 18.8336Z" stroke="#007AFF" stroke-linejoin="round"/>
<path d="M9.47974 9.94963L12.6737 7.00136C13.035 6.65645 13.4665 6.38082 13.9435 6.19026C14.4205 5.9997 14.9335 5.89802 15.4532 5.89101C15.9729 5.88403 16.489 5.97186 16.9718 6.14948C17.4546 6.32709 17.8946 6.59099 18.2667 6.92602L20.8076 9.29118C21.1128 9.56662 21.3558 9.89522 21.5224 10.2579C21.689 10.6207 21.7759 11.0103 21.7783 11.4042C21.7806 11.7982 21.6982 12.1887 21.5358 12.5531C21.3735 12.9174 21.1344 13.2484 20.8325 13.5269L19.7678 14.5096" stroke="#007AFF" stroke-linejoin="round"/>
<path d="M19.7428 14.4865L19.6399 14.4014" stroke="#007AFF" stroke-linejoin="round"/>
<path d="M10.3136 9.18945L9.00409 10.3982C8.8928 10.5008 8.80454 10.6226 8.74432 10.7566C8.68406 10.8907 8.65308 11.0344 8.65308 11.1795C8.65308 11.3247 8.68406 11.4684 8.74432 11.6024C8.80454 11.7365 8.8928 11.8583 9.00409 11.9608C9.22902 12.1685 9.53415 12.2851 9.85227 12.2851C10.1704 12.2851 10.4755 12.1685 10.7004 11.9608L11.8964 10.8569C13.1137 9.73652 14.3806 9.56618 15.683 10.7619L21.0347 15.6953C21.2569 15.9005 21.3826 16.1782 21.3848 16.4683C21.3869 16.7585 21.2652 17.0377 21.046 17.2457C20.8267 17.4536 20.5276 17.5735 20.2134 17.5795C19.8991 17.5855 19.2283 17.1993 19 16.9998L19.7216 17.6051C19.8413 17.7061 19.9375 17.8285 20.0046 17.9647C20.0716 18.1011 20.108 18.2485 20.1115 18.3981C20.1151 18.5478 20.0857 18.6965 20.0252 18.8354C19.9648 18.9743 19.8744 19.1004 19.7596 19.2062C19.6448 19.3119 19.508 19.3951 19.3574 19.4506C19.2068 19.5061 19.0456 19.5329 18.8835 19.5293C18.7214 19.5257 18.5618 19.4918 18.4142 19.4297C18.2667 19.3675 17.6092 18.9461 17.5 18.8354C17.7069 19.0469 18.3427 19.6561 18.3341 19.9409C18.3254 20.2257 18.1981 20.4964 17.9788 20.6968C17.7594 20.8973 17.4647 21.0119 17.1561 21.0169C16.8475 21.0219 16.5487 20.9169 16.3218 20.7237L15.5 19.9998C15.6997 20.2104 16.2971 20.8992 16.2872 21.179C16.2773 21.4587 16.1527 21.7245 15.9385 21.9227C15.7136 22.1304 15.4085 22.247 15.0904 22.247C14.7722 22.247 14.4671 22.1304 14.2422 21.9227L13.0001 20.7827" stroke="#007AFF" stroke-linejoin="round"/>
<path d="M12.9255 20.7107L13.0059 20.7828" stroke="#007AFF" stroke-linejoin="round"/>
<path d="M13.0284 6.77199C12.2682 6.19416 11.3026 5.89766 10.3189 5.94002C9.33523 5.98241 8.40369 6.36064 7.70514 7.0013L5.17125 9.2944C4.86673 9.57026 4.62445 9.89909 4.45842 10.2619C4.29238 10.6247 4.20587 11.0143 4.20389 11.4081C4.20191 11.802 4.2845 12.1923 4.44688 12.5565C4.60927 12.9207 4.84823 13.2516 5.14996 13.5301L6.21463 14.5128" stroke="#007AFF" stroke-linejoin="round"/>
</svg>
