<svg width="24" height="24" viewBox="0 0 24 24" fill="none" xmlns="http://www.w3.org/2000/svg">
<path d="M12 13.5C11.2583 13.5 10.5333 13.2801 9.91661 12.868C9.29993 12.456 8.81928 11.8703 8.53545 11.1851C8.25162 10.4998 8.17736 9.74584 8.32206 9.01841C8.46675 8.29098 8.8239 7.6228 9.34835 7.09835C9.8728 6.5739 10.541 6.21675 11.2684 6.07206C11.9958 5.92736 12.7498 6.00162 13.4351 6.28545C14.1203 6.56928 14.706 7.04993 15.118 7.66661C15.5301 8.2833 15.75 9.00832 15.75 9.75C15.7489 10.7442 15.3534 11.6974 14.6504 12.4004C13.9474 13.1034 12.9942 13.4989 12 13.5V13.5ZM12 7.5C11.555 7.5 11.12 7.63196 10.75 7.8792C10.38 8.12643 10.0916 8.47783 9.92127 8.88896C9.75098 9.3001 9.70642 9.7525 9.79323 10.189C9.88005 10.6254 10.0943 11.0263 10.409 11.341C10.7237 11.6557 11.1246 11.87 11.561 11.9568C11.9975 12.0436 12.4499 11.999 12.861 11.8287C13.2722 11.6584 13.6236 11.37 13.8708 11C14.118 10.63 14.25 10.195 14.25 9.75C14.2493 9.15347 14.0121 8.58155 13.5903 8.15974C13.1685 7.73792 12.5965 7.50066 12 7.5Z" fill="#007AFF"/>
<path d="M12.6674 21.7129C12.3179 22.1251 11.6821 22.1251 11.3326 21.7129L5.67338 15.0385C5.63809 14.9964 5.42015 14.7103 5.41244 14.7001C5.4122 14.6998 5.41211 14.6997 5.41187 14.6994C4.33128 13.2759 3.74748 11.5372 3.75001 9.75C3.75001 7.56196 4.6192 5.46354 6.16638 3.91637C7.71355 2.36919 9.81197 1.5 12 1.5C14.188 1.5 16.2865 2.36919 17.8336 3.91637C19.3808 5.46354 20.25 7.56196 20.25 9.75C20.2527 11.5367 19.6692 13.2749 18.5889 14.698V14.698C18.5882 14.6992 18.5875 14.7002 18.5866 14.7014C18.569 14.7245 18.3614 14.9973 18.3293 15.0354L12.6674 21.7129ZM6.60906 13.7958C6.60928 13.7961 6.60937 13.7962 6.60958 13.7965C6.61623 13.8053 6.78522 14.0284 6.82433 14.0771L11.3326 19.3938C11.6821 19.806 12.3179 19.806 12.6674 19.3938L17.1825 14.0684C17.2146 14.0281 17.3824 13.8063 17.3912 13.7946C17.3915 13.7943 17.3918 13.794 17.392 13.7936C18.2747 12.6305 18.7517 11.2101 18.75 9.75C18.75 7.95979 18.0388 6.2429 16.773 4.97703C15.5071 3.71116 13.7902 3 12 3C10.2098 3 8.49291 3.71116 7.22704 4.97703C5.96117 6.2429 5.25001 7.95979 5.25001 9.75C5.24835 11.211 5.72576 12.6322 6.60906 13.7958Z" fill="#007AFF"/>
</svg>
