<svg width="28" height="28" viewBox="0 0 28 28" fill="none" xmlns="http://www.w3.org/2000/svg">
<rect width="28" height="28" rx="8" fill="white"/>
<path d="M16.5949 16.5557L15.2139 15.1909" stroke="#FF9800" stroke-width="1.08927" stroke-linecap="round" stroke-linejoin="round"/>
<path d="M10.5554 17.1231C14.1793 17.1231 17.117 14.1854 17.117 10.5615C17.117 6.93772 14.1793 4 10.5554 4C6.93158 4 3.9939 6.93772 3.9939 10.5615C3.9939 14.1854 6.93158 17.1231 10.5554 17.1231Z" stroke="#007AFF" stroke-width="1.08927" stroke-linejoin="round"/>
<path d="M10.5554 15.7712C13.4326 15.7712 15.765 13.4387 15.765 10.5615C15.765 7.68426 13.4326 5.35181 10.5554 5.35181C7.67816 5.35181 5.3457 7.68426 5.3457 10.5615C5.3457 13.4387 7.67816 15.7712 10.5554 15.7712Z" stroke="#FF9800" stroke-width="1.08927" stroke-linecap="round" stroke-linejoin="round"/>
<path d="M16.6014 16.5746L16.5807 16.5952C16.1186 17.0573 16.1186 17.8065 16.5807 18.2687L21.9654 23.6534C22.4275 24.1155 23.1767 24.1155 23.6389 23.6534L23.6595 23.6328C24.1216 23.1706 24.1216 22.4214 23.6595 21.9593L18.2748 16.5746C17.8126 16.1125 17.0634 16.1125 16.6014 16.5746Z" fill="#007AFF" stroke="#007AFF" stroke-width="1.08927" stroke-linejoin="round"/>
</svg>
